<svg viewBox="0 0 780 400" width="100%" role="img" xmlns="http://www.w3.org/2000/svg" font-family="system-ui, -apple-system, Segoe UI, sans-serif" aria-label="Coactivity excess per minute at K=3 falls after penumbra subtraction in both streams; it does not reach zero.">
<style>.ink{fill:var(--fig-ink,#0b0b0b)} .mut{fill:var(--fig-mut,#52514e)}.grid{stroke:var(--fig-grid,#e3e2dd);stroke-width:1}.axis{stroke:var(--fig-mut,#52514e);stroke-width:1}.fell{stroke:var(--fig-fell,#2a78d6)} .rose{stroke:var(--fig-rose,#eb6834)}</style>
<line class="grid" x1="74.0" y1="338.0" x2="389.0" y2="338.0"/>
<text class="mut" x="64.0" y="342.0" text-anchor="end" font-size="11">0</text>
<line class="grid" x1="74.0" y1="307.6" x2="389.0" y2="307.6"/>
<text class="mut" x="64.0" y="311.6" text-anchor="end" font-size="11">0.1</text>
<line class="grid" x1="74.0" y1="220.7" x2="389.0" y2="220.7"/>
<text class="mut" x="64.0" y="224.7" text-anchor="end" font-size="11">1</text>
<line class="grid" x1="74.0" y1="133.9" x2="389.0" y2="133.9"/>
<text class="mut" x="64.0" y="137.9" text-anchor="end" font-size="11">10</text>
<line class="grid" x1="74.0" y1="47.0" x2="389.0" y2="47.0"/>
<text class="mut" x="64.0" y="51.0" text-anchor="end" font-size="11">100</text>
<line x1="74.0" y1="332.8" x2="389.0" y2="332.8" stroke="var(--fig-mut,#52514e)" stroke-width="1" stroke-dasharray="3 3" stroke-opacity="0.55"/>
<line stroke="var(--fig-mut,#52514e)" x1="155.9" y1="338.0" x2="307.1" y2="338.0" stroke-width="1.4" stroke-opacity="0.3"/>
<line stroke="var(--fig-mut,#52514e)" x1="155.9" y1="338.0" x2="307.1" y2="338.0" stroke-width="1.4" stroke-opacity="0.3"/>
<line stroke="var(--fig-mut,#52514e)" x1="155.9" y1="338.0" x2="307.1" y2="338.0" stroke-width="1.4" stroke-opacity="0.3"/>
<line stroke="var(--fig-mut,#52514e)" x1="155.9" y1="338.0" x2="307.1" y2="338.0" stroke-width="1.4" stroke-opacity="0.3"/>
<line stroke="var(--fig-mut,#52514e)" x1="155.9" y1="338.0" x2="307.1" y2="338.0" stroke-width="1.4" stroke-opacity="0.3"/>
<line stroke="var(--fig-mut,#52514e)" x1="155.9" y1="338.0" x2="307.1" y2="338.0" stroke-width="1.4" stroke-opacity="0.3"/>
<line stroke="var(--fig-mut,#52514e)" x1="155.9" y1="338.0" x2="307.1" y2="338.0" stroke-width="1.4" stroke-opacity="0.3"/>
<line stroke="var(--fig-mut,#52514e)" x1="155.9" y1="338.0" x2="307.1" y2="338.0" stroke-width="1.4" stroke-opacity="0.3"/>
<line stroke="var(--fig-mut,#52514e)" x1="155.9" y1="338.0" x2="307.1" y2="338.0" stroke-width="1.4" stroke-opacity="0.3"/>
<line stroke="var(--fig-mut,#52514e)" x1="155.9" y1="338.0" x2="307.1" y2="338.0" stroke-width="1.4" stroke-opacity="0.3"/>
<line stroke="var(--fig-mut,#52514e)" x1="155.9" y1="338.0" x2="307.1" y2="338.0" stroke-width="1.4" stroke-opacity="0.3"/>
<line stroke="var(--fig-mut,#52514e)" x1="155.9" y1="338.0" x2="307.1" y2="338.0" stroke-width="1.4" stroke-opacity="0.3"/>
<line stroke="var(--fig-mut,#52514e)" x1="155.9" y1="338.0" x2="307.1" y2="338.0" stroke-width="1.4" stroke-opacity="0.3"/>
<line stroke="var(--fig-mut,#52514e)" x1="155.9" y1="338.0" x2="307.1" y2="338.0" stroke-width="1.4" stroke-opacity="0.3"/>
<line stroke="var(--fig-mut,#52514e)" x1="155.9" y1="338.0" x2="307.1" y2="338.0" stroke-width="1.4" stroke-opacity="0.3"/>
<line stroke="var(--fig-mut,#52514e)" x1="155.9" y1="338.0" x2="307.1" y2="338.0" stroke-width="1.4" stroke-opacity="0.3"/>
<line stroke="var(--fig-mut,#52514e)" x1="155.9" y1="338.0" x2="307.1" y2="338.0" stroke-width="1.4" stroke-opacity="0.3"/>
<line stroke="var(--fig-mut,#52514e)" x1="155.9" y1="338.0" x2="307.1" y2="338.0" stroke-width="1.4" stroke-opacity="0.3"/>
<line stroke="var(--fig-rose,#eb6834)" x1="155.9" y1="233.0" x2="307.1" y2="215.5" stroke-width="1.4" stroke-opacity="0.55"/>
<line stroke="var(--fig-rose,#eb6834)" x1="155.9" y1="125.0" x2="307.1" y2="123.5" stroke-width="1.4" stroke-opacity="0.55"/>
<line stroke="var(--fig-fell,#2a78d6)" x1="155.9" y1="155.1" x2="307.1" y2="298.6" stroke-width="1.4" stroke-opacity="0.3"/>
<line stroke="var(--fig-fell,#2a78d6)" x1="155.9" y1="133.2" x2="307.1" y2="259.1" stroke-width="1.4" stroke-opacity="0.3"/>
<line stroke="var(--fig-fell,#2a78d6)" x1="155.9" y1="195.7" x2="307.1" y2="338.0" stroke-width="1.4" stroke-opacity="0.3"/>
<line stroke="var(--fig-fell,#2a78d6)" x1="155.9" y1="196.9" x2="307.1" y2="269.2" stroke-width="1.4" stroke-opacity="0.3"/>
<line stroke="var(--fig-fell,#2a78d6)" x1="155.9" y1="165.7" x2="307.1" y2="309.9" stroke-width="1.4" stroke-opacity="0.3"/>
<line stroke="var(--fig-fell,#2a78d6)" x1="155.9" y1="217.2" x2="307.1" y2="268.9" stroke-width="1.4" stroke-opacity="0.3"/>
<line stroke="var(--fig-fell,#2a78d6)" x1="155.9" y1="308.7" x2="307.1" y2="338.0" stroke-width="1.4" stroke-opacity="0.3"/>
<line stroke="var(--fig-fell,#2a78d6)" x1="155.9" y1="258.9" x2="307.1" y2="338.0" stroke-width="1.4" stroke-opacity="0.3"/>
<line stroke="var(--fig-fell,#2a78d6)" x1="155.9" y1="281.5" x2="307.1" y2="338.0" stroke-width="1.4" stroke-opacity="0.3"/>
<line stroke="var(--fig-fell,#2a78d6)" x1="155.9" y1="208.0" x2="307.1" y2="258.7" stroke-width="1.4" stroke-opacity="0.3"/>
<line stroke="var(--fig-fell,#2a78d6)" x1="155.9" y1="167.4" x2="307.1" y2="205.9" stroke-width="1.4" stroke-opacity="0.3"/>
<line stroke="var(--fig-fell,#2a78d6)" x1="155.9" y1="141.7" x2="307.1" y2="295.5" stroke-width="1.4" stroke-opacity="0.3"/>
<line stroke="var(--fig-fell,#2a78d6)" x1="155.9" y1="218.8" x2="307.1" y2="267.0" stroke-width="1.4" stroke-opacity="0.3"/>
<line stroke="var(--fig-fell,#2a78d6)" x1="155.9" y1="112.1" x2="307.1" y2="179.2" stroke-width="1.4" stroke-opacity="0.3"/>
<line stroke="var(--fig-fell,#2a78d6)" x1="155.9" y1="297.7" x2="307.1" y2="338.0" stroke-width="1.4" stroke-opacity="0.3"/>
<line stroke="var(--fig-fell,#2a78d6)" x1="155.9" y1="245.8" x2="307.1" y2="271.1" stroke-width="1.4" stroke-opacity="0.3"/>
<line stroke="var(--fig-fell,#2a78d6)" x1="155.9" y1="284.8" x2="307.1" y2="338.0" stroke-width="1.4" stroke-opacity="0.3"/>
<line stroke="var(--fig-fell,#2a78d6)" x1="155.9" y1="266.4" x2="307.1" y2="338.0" stroke-width="1.4" stroke-opacity="0.3"/>
<line stroke="var(--fig-fell,#2a78d6)" x1="155.9" y1="150.5" x2="307.1" y2="229.9" stroke-width="1.4" stroke-opacity="0.3"/>
<line stroke="var(--fig-fell,#2a78d6)" x1="155.9" y1="242.3" x2="307.1" y2="338.0" stroke-width="1.4" stroke-opacity="0.3"/>
<line stroke="var(--fig-fell,#2a78d6)" x1="155.9" y1="116.5" x2="307.1" y2="179.4" stroke-width="1.4" stroke-opacity="0.3"/>
<line stroke="var(--fig-fell,#2a78d6)" x1="155.9" y1="166.3" x2="307.1" y2="293.3" stroke-width="1.4" stroke-opacity="0.3"/>
<line stroke="var(--fig-fell,#2a78d6)" x1="155.9" y1="216.3" x2="307.1" y2="296.3" stroke-width="1.4" stroke-opacity="0.3"/>
<line stroke="var(--fig-fell,#2a78d6)" x1="155.9" y1="117.3" x2="307.1" y2="176.8" stroke-width="1.4" stroke-opacity="0.3"/>
<line stroke="var(--fig-fell,#2a78d6)" x1="155.9" y1="253.8" x2="307.1" y2="338.0" stroke-width="1.4" stroke-opacity="0.3"/>
<line stroke="var(--fig-fell,#2a78d6)" x1="155.9" y1="249.3" x2="307.1" y2="286.3" stroke-width="1.4" stroke-opacity="0.3"/>
<line stroke="var(--fig-fell,#2a78d6)" x1="155.9" y1="169.7" x2="307.1" y2="291.3" stroke-width="1.4" stroke-opacity="0.3"/>
<line stroke="var(--fig-fell,#2a78d6)" x1="155.9" y1="198.3" x2="307.1" y2="233.2" stroke-width="1.4" stroke-opacity="0.3"/>
<line stroke="var(--fig-fell,#2a78d6)" x1="155.9" y1="103.7" x2="307.1" y2="169.8" stroke-width="1.4" stroke-opacity="0.3"/>
<line stroke="var(--fig-fell,#2a78d6)" x1="155.9" y1="117.8" x2="307.1" y2="178.2" stroke-width="1.4" stroke-opacity="0.3"/>
<line stroke="var(--fig-fell,#2a78d6)" x1="155.9" y1="100.3" x2="307.1" y2="143.9" stroke-width="1.4" stroke-opacity="0.3"/>
<line stroke="var(--fig-fell,#2a78d6)" x1="155.9" y1="96.2" x2="307.1" y2="106.8" stroke-width="1.4" stroke-opacity="0.3"/>
<line stroke="var(--fig-fell,#2a78d6)" x1="155.9" y1="251.0" x2="307.1" y2="338.0" stroke-width="1.4" stroke-opacity="0.3"/>
<line stroke="var(--fig-fell,#2a78d6)" x1="155.9" y1="219.0" x2="307.1" y2="295.5" stroke-width="1.4" stroke-opacity="0.3"/>
<line stroke="var(--fig-fell,#2a78d6)" x1="155.9" y1="293.6" x2="307.1" y2="338.0" stroke-width="1.4" stroke-opacity="0.3"/>
<line stroke="var(--fig-fell,#2a78d6)" x1="155.9" y1="260.5" x2="307.1" y2="338.0" stroke-width="1.4" stroke-opacity="0.3"/>
<line stroke="var(--fig-fell,#2a78d6)" x1="155.9" y1="153.8" x2="307.1" y2="179.7" stroke-width="1.4" stroke-opacity="0.3"/>
<line stroke="var(--fig-fell,#2a78d6)" x1="155.9" y1="83.7" x2="307.1" y2="255.3" stroke-width="1.4" stroke-opacity="0.3"/>
<line stroke="var(--fig-fell,#2a78d6)" x1="155.9" y1="88.8" x2="307.1" y2="147.3" stroke-width="1.4" stroke-opacity="0.3"/>
<line stroke="var(--fig-fell,#2a78d6)" x1="155.9" y1="159.8" x2="307.1" y2="338.0" stroke-width="1.4" stroke-opacity="0.3"/>
<line stroke="var(--fig-fell,#2a78d6)" x1="155.9" y1="102.6" x2="307.1" y2="231.6" stroke-width="1.4" stroke-opacity="0.3"/>
<line stroke="var(--fig-fell,#2a78d6)" x1="155.9" y1="294.4" x2="307.1" y2="338.0" stroke-width="1.4" stroke-opacity="0.3"/>
<line stroke="var(--fig-fell,#2a78d6)" x1="155.9" y1="253.0" x2="307.1" y2="293.8" stroke-width="1.4" stroke-opacity="0.3"/>
<line stroke="var(--fig-fell,#2a78d6)" x1="155.9" y1="155.7" x2="307.1" y2="197.7" stroke-width="1.4" stroke-opacity="0.3"/>
<line stroke="var(--fig-fell,#2a78d6)" x1="155.9" y1="209.1" x2="307.1" y2="230.0" stroke-width="1.4" stroke-opacity="0.3"/>
<line stroke="var(--fig-fell,#2a78d6)" x1="155.9" y1="143.8" x2="307.1" y2="221.1" stroke-width="1.4" stroke-opacity="0.3"/>
<line stroke="var(--fig-fell,#2a78d6)" x1="155.9" y1="135.5" x2="307.1" y2="186.1" stroke-width="1.4" stroke-opacity="0.3"/>
<line stroke="var(--fig-fell,#2a78d6)" x1="155.9" y1="226.6" x2="307.1" y2="300.1" stroke-width="1.4" stroke-opacity="0.3"/>
<line stroke="var(--fig-fell,#2a78d6)" x1="155.9" y1="205.2" x2="307.1" y2="338.0" stroke-width="1.4" stroke-opacity="0.3"/>
<line stroke="var(--fig-fell,#2a78d6)" x1="155.9" y1="94.9" x2="307.1" y2="119.5" stroke-width="1.4" stroke-opacity="0.3"/>
<line stroke="var(--fig-fell,#2a78d6)" x1="155.9" y1="124.8" x2="307.1" y2="193.3" stroke-width="1.4" stroke-opacity="0.3"/>
<line stroke="var(--fig-fell,#2a78d6)" x1="155.9" y1="86.4" x2="307.1" y2="133.8" stroke-width="1.4" stroke-opacity="0.3"/>
<line stroke="var(--fig-fell,#2a78d6)" x1="155.9" y1="129.6" x2="307.1" y2="241.1" stroke-width="1.4" stroke-opacity="0.3"/>
<line stroke="var(--fig-fell,#2a78d6)" x1="155.9" y1="201.3" x2="307.1" y2="242.2" stroke-width="1.4" stroke-opacity="0.3"/>
<line stroke="var(--fig-fell,#2a78d6)" x1="155.9" y1="147.0" x2="307.1" y2="241.7" stroke-width="1.4" stroke-opacity="0.3"/>
<line stroke="var(--fig-fell,#2a78d6)" x1="155.9" y1="164.9" x2="307.1" y2="252.1" stroke-width="1.4" stroke-opacity="0.3"/>
<line stroke="var(--fig-fell,#2a78d6)" x1="155.9" y1="129.3" x2="307.1" y2="192.9" stroke-width="1.4" stroke-opacity="0.3"/>
<line stroke="var(--fig-fell,#2a78d6)" x1="155.9" y1="128.7" x2="307.1" y2="160.6" stroke-width="1.4" stroke-opacity="0.3"/>
<line stroke="var(--fig-fell,#2a78d6)" x1="155.9" y1="270.1" x2="307.1" y2="338.0" stroke-width="1.4" stroke-opacity="0.3"/>
<line stroke="var(--fig-fell,#2a78d6)" x1="155.9" y1="128.7" x2="307.1" y2="217.1" stroke-width="1.4" stroke-opacity="0.3"/>
<line stroke="var(--fig-fell,#2a78d6)" x1="155.9" y1="137.7" x2="307.1" y2="209.3" stroke-width="1.4" stroke-opacity="0.3"/>
<line stroke="var(--fig-fell,#2a78d6)" x1="155.9" y1="83.8" x2="307.1" y2="106.4" stroke-width="1.4" stroke-opacity="0.3"/>
<line stroke="var(--fig-fell,#2a78d6)" x1="155.9" y1="247.6" x2="307.1" y2="338.0" stroke-width="1.4" stroke-opacity="0.3"/>
<line stroke="var(--fig-fell,#2a78d6)" x1="155.9" y1="231.9" x2="307.1" y2="292.8" stroke-width="1.4" stroke-opacity="0.3"/>
<line x1="155.9" y1="212.5" x2="307.1" y2="293.6" stroke="var(--fig-ink,#0b0b0b)" stroke-width="2.6"/>
<circle cx="155.9" cy="212.5" r="5.5" fill="var(--fig-surface,#fcfcfb)" stroke="var(--fig-ink,#0b0b0b)" stroke-width="2.6"/>
<circle cx="307.1" cy="293.6" r="5.5" fill="var(--fig-surface,#fcfcfb)" stroke="var(--fig-ink,#0b0b0b)" stroke-width="2.6"/>
<text class="ink" x="144.9" y="201.5" text-anchor="end" font-size="12" font-weight="600">1.24</text>
<text class="ink" x="318.1" y="282.6" font-size="12" font-weight="600">0.14</text>
<line class="axis" x1="74.0" y1="338.0" x2="389.0" y2="338.0"/>
<text class="mut" x="155.9" y="356.0" text-anchor="middle" font-size="11">original</text>
<text class="mut" x="307.1" y="356.0" text-anchor="middle" font-size="11">penumbra-subtracted</text>
<text class="ink" x="74.0" y="20" font-size="13" font-weight="700">A</text>
<text class="ink" x="91.0" y="20" font-size="12">fast · 84 recordings</text>
<text class="mut" x="231.5" y="378.0" text-anchor="middle" font-size="11">fell in 64, rose in 2, already 0 in 18</text>
<line class="grid" x1="447.0" y1="338.0" x2="762.0" y2="338.0"/>
<line class="grid" x1="447.0" y1="307.6" x2="762.0" y2="307.6"/>
<line class="grid" x1="447.0" y1="220.7" x2="762.0" y2="220.7"/>
<line class="grid" x1="447.0" y1="133.9" x2="762.0" y2="133.9"/>
<line class="grid" x1="447.0" y1="47.0" x2="762.0" y2="47.0"/>
<line x1="447.0" y1="332.8" x2="762.0" y2="332.8" stroke="var(--fig-mut,#52514e)" stroke-width="1" stroke-dasharray="3 3" stroke-opacity="0.55"/>
<line stroke="var(--fig-mut,#52514e)" x1="528.9" y1="338.0" x2="680.1" y2="338.0" stroke-width="1.4" stroke-opacity="0.3"/>
<line stroke="var(--fig-mut,#52514e)" x1="528.9" y1="338.0" x2="680.1" y2="338.0" stroke-width="1.4" stroke-opacity="0.3"/>
<line stroke="var(--fig-mut,#52514e)" x1="528.9" y1="338.0" x2="680.1" y2="338.0" stroke-width="1.4" stroke-opacity="0.3"/>
<line stroke="var(--fig-mut,#52514e)" x1="528.9" y1="338.0" x2="680.1" y2="338.0" stroke-width="1.4" stroke-opacity="0.3"/>
<line stroke="var(--fig-mut,#52514e)" x1="528.9" y1="338.0" x2="680.1" y2="338.0" stroke-width="1.4" stroke-opacity="0.3"/>
<line stroke="var(--fig-mut,#52514e)" x1="528.9" y1="338.0" x2="680.1" y2="338.0" stroke-width="1.4" stroke-opacity="0.3"/>
<line stroke="var(--fig-mut,#52514e)" x1="528.9" y1="338.0" x2="680.1" y2="338.0" stroke-width="1.4" stroke-opacity="0.3"/>
<line stroke="var(--fig-mut,#52514e)" x1="528.9" y1="338.0" x2="680.1" y2="338.0" stroke-width="1.4" stroke-opacity="0.3"/>
<line stroke="var(--fig-mut,#52514e)" x1="528.9" y1="338.0" x2="680.1" y2="338.0" stroke-width="1.4" stroke-opacity="0.3"/>
<line stroke="var(--fig-mut,#52514e)" x1="528.9" y1="338.0" x2="680.1" y2="338.0" stroke-width="1.4" stroke-opacity="0.3"/>
<line stroke="var(--fig-mut,#52514e)" x1="528.9" y1="338.0" x2="680.1" y2="338.0" stroke-width="1.4" stroke-opacity="0.3"/>
<line stroke="var(--fig-mut,#52514e)" x1="528.9" y1="338.0" x2="680.1" y2="338.0" stroke-width="1.4" stroke-opacity="0.3"/>
<line stroke="var(--fig-mut,#52514e)" x1="528.9" y1="338.0" x2="680.1" y2="338.0" stroke-width="1.4" stroke-opacity="0.3"/>
<line stroke="var(--fig-mut,#52514e)" x1="528.9" y1="338.0" x2="680.1" y2="338.0" stroke-width="1.4" stroke-opacity="0.3"/>
<line stroke="var(--fig-mut,#52514e)" x1="528.9" y1="338.0" x2="680.1" y2="338.0" stroke-width="1.4" stroke-opacity="0.3"/>
<line stroke="var(--fig-mut,#52514e)" x1="528.9" y1="338.0" x2="680.1" y2="338.0" stroke-width="1.4" stroke-opacity="0.3"/>
<line stroke="var(--fig-mut,#52514e)" x1="528.9" y1="338.0" x2="680.1" y2="338.0" stroke-width="1.4" stroke-opacity="0.3"/>
<line stroke="var(--fig-mut,#52514e)" x1="528.9" y1="338.0" x2="680.1" y2="338.0" stroke-width="1.4" stroke-opacity="0.3"/>
<line stroke="var(--fig-mut,#52514e)" x1="528.9" y1="338.0" x2="680.1" y2="338.0" stroke-width="1.4" stroke-opacity="0.3"/>
<line stroke="var(--fig-mut,#52514e)" x1="528.9" y1="338.0" x2="680.1" y2="338.0" stroke-width="1.4" stroke-opacity="0.3"/>
<line stroke="var(--fig-mut,#52514e)" x1="528.9" y1="338.0" x2="680.1" y2="338.0" stroke-width="1.4" stroke-opacity="0.3"/>
<line stroke="var(--fig-mut,#52514e)" x1="528.9" y1="338.0" x2="680.1" y2="338.0" stroke-width="1.4" stroke-opacity="0.3"/>
<line stroke="var(--fig-mut,#52514e)" x1="528.9" y1="338.0" x2="680.1" y2="338.0" stroke-width="1.4" stroke-opacity="0.3"/>
<line stroke="var(--fig-mut,#52514e)" x1="528.9" y1="338.0" x2="680.1" y2="338.0" stroke-width="1.4" stroke-opacity="0.3"/>
<line stroke="var(--fig-mut,#52514e)" x1="528.9" y1="338.0" x2="680.1" y2="338.0" stroke-width="1.4" stroke-opacity="0.3"/>
<line stroke="var(--fig-mut,#52514e)" x1="528.9" y1="338.0" x2="680.1" y2="338.0" stroke-width="1.4" stroke-opacity="0.3"/>
<line stroke="var(--fig-mut,#52514e)" x1="528.9" y1="338.0" x2="680.1" y2="338.0" stroke-width="1.4" stroke-opacity="0.3"/>
<line stroke="var(--fig-rose,#eb6834)" x1="528.9" y1="308.7" x2="680.1" y2="308.4" stroke-width="1.4" stroke-opacity="0.55"/>
<line stroke="var(--fig-rose,#eb6834)" x1="528.9" y1="308.7" x2="680.1" y2="283.0" stroke-width="1.4" stroke-opacity="0.55"/>
<line stroke="var(--fig-fell,#2a78d6)" x1="528.9" y1="169.8" x2="680.1" y2="242.1" stroke-width="1.4" stroke-opacity="0.3"/>
<line stroke="var(--fig-fell,#2a78d6)" x1="528.9" y1="204.0" x2="680.1" y2="338.0" stroke-width="1.4" stroke-opacity="0.3"/>
<line stroke="var(--fig-fell,#2a78d6)" x1="528.9" y1="245.6" x2="680.1" y2="338.0" stroke-width="1.4" stroke-opacity="0.3"/>
<line stroke="var(--fig-fell,#2a78d6)" x1="528.9" y1="154.7" x2="680.1" y2="193.2" stroke-width="1.4" stroke-opacity="0.3"/>
<line stroke="var(--fig-fell,#2a78d6)" x1="528.9" y1="274.9" x2="680.1" y2="338.0" stroke-width="1.4" stroke-opacity="0.3"/>
<line stroke="var(--fig-fell,#2a78d6)" x1="528.9" y1="101.5" x2="680.1" y2="137.0" stroke-width="1.4" stroke-opacity="0.3"/>
<line stroke="var(--fig-fell,#2a78d6)" x1="528.9" y1="108.8" x2="680.1" y2="162.7" stroke-width="1.4" stroke-opacity="0.3"/>
<line stroke="var(--fig-fell,#2a78d6)" x1="528.9" y1="224.9" x2="680.1" y2="255.8" stroke-width="1.4" stroke-opacity="0.3"/>
<line stroke="var(--fig-fell,#2a78d6)" x1="528.9" y1="83.7" x2="680.1" y2="119.9" stroke-width="1.4" stroke-opacity="0.3"/>
<line stroke="var(--fig-fell,#2a78d6)" x1="528.9" y1="227.5" x2="680.1" y2="293.1" stroke-width="1.4" stroke-opacity="0.3"/>
<line stroke="var(--fig-fell,#2a78d6)" x1="528.9" y1="94.0" x2="680.1" y2="160.4" stroke-width="1.4" stroke-opacity="0.3"/>
<line stroke="var(--fig-fell,#2a78d6)" x1="528.9" y1="230.4" x2="680.1" y2="338.0" stroke-width="1.4" stroke-opacity="0.3"/>
<line stroke="var(--fig-fell,#2a78d6)" x1="528.9" y1="160.9" x2="680.1" y2="232.1" stroke-width="1.4" stroke-opacity="0.3"/>
<line stroke="var(--fig-fell,#2a78d6)" x1="528.9" y1="125.2" x2="680.1" y2="171.4" stroke-width="1.4" stroke-opacity="0.3"/>
<line stroke="var(--fig-fell,#2a78d6)" x1="528.9" y1="217.3" x2="680.1" y2="338.0" stroke-width="1.4" stroke-opacity="0.3"/>
<line stroke="var(--fig-fell,#2a78d6)" x1="528.9" y1="162.4" x2="680.1" y2="234.5" stroke-width="1.4" stroke-opacity="0.3"/>
<line stroke="var(--fig-fell,#2a78d6)" x1="528.9" y1="253.7" x2="680.1" y2="338.0" stroke-width="1.4" stroke-opacity="0.3"/>
<line stroke="var(--fig-fell,#2a78d6)" x1="528.9" y1="292.6" x2="680.1" y2="338.0" stroke-width="1.4" stroke-opacity="0.3"/>
<line stroke="var(--fig-fell,#2a78d6)" x1="528.9" y1="275.4" x2="680.1" y2="286.3" stroke-width="1.4" stroke-opacity="0.3"/>
<line stroke="var(--fig-fell,#2a78d6)" x1="528.9" y1="145.3" x2="680.1" y2="210.6" stroke-width="1.4" stroke-opacity="0.3"/>
<line stroke="var(--fig-fell,#2a78d6)" x1="528.9" y1="130.1" x2="680.1" y2="185.0" stroke-width="1.4" stroke-opacity="0.3"/>
<line stroke="var(--fig-fell,#2a78d6)" x1="528.9" y1="54.6" x2="680.1" y2="95.4" stroke-width="1.4" stroke-opacity="0.3"/>
<line stroke="var(--fig-fell,#2a78d6)" x1="528.9" y1="81.4" x2="680.1" y2="112.5" stroke-width="1.4" stroke-opacity="0.3"/>
<line stroke="var(--fig-fell,#2a78d6)" x1="528.9" y1="228.4" x2="680.1" y2="252.1" stroke-width="1.4" stroke-opacity="0.3"/>
<line stroke="var(--fig-fell,#2a78d6)" x1="528.9" y1="166.6" x2="680.1" y2="191.7" stroke-width="1.4" stroke-opacity="0.3"/>
<line stroke="var(--fig-fell,#2a78d6)" x1="528.9" y1="194.8" x2="680.1" y2="255.5" stroke-width="1.4" stroke-opacity="0.3"/>
<line stroke="var(--fig-fell,#2a78d6)" x1="528.9" y1="255.3" x2="680.1" y2="338.0" stroke-width="1.4" stroke-opacity="0.3"/>
<line stroke="var(--fig-fell,#2a78d6)" x1="528.9" y1="294.1" x2="680.1" y2="338.0" stroke-width="1.4" stroke-opacity="0.3"/>
<line stroke="var(--fig-fell,#2a78d6)" x1="528.9" y1="273.0" x2="680.1" y2="338.0" stroke-width="1.4" stroke-opacity="0.3"/>
<line stroke="var(--fig-fell,#2a78d6)" x1="528.9" y1="292.1" x2="680.1" y2="338.0" stroke-width="1.4" stroke-opacity="0.3"/>
<line stroke="var(--fig-fell,#2a78d6)" x1="528.9" y1="143.6" x2="680.1" y2="207.0" stroke-width="1.4" stroke-opacity="0.3"/>
<line stroke="var(--fig-fell,#2a78d6)" x1="528.9" y1="162.4" x2="680.1" y2="261.8" stroke-width="1.4" stroke-opacity="0.3"/>
<line stroke="var(--fig-fell,#2a78d6)" x1="528.9" y1="203.0" x2="680.1" y2="294.6" stroke-width="1.4" stroke-opacity="0.3"/>
<line stroke="var(--fig-fell,#2a78d6)" x1="528.9" y1="184.4" x2="680.1" y2="266.7" stroke-width="1.4" stroke-opacity="0.3"/>
<line stroke="var(--fig-fell,#2a78d6)" x1="528.9" y1="252.6" x2="680.1" y2="292.8" stroke-width="1.4" stroke-opacity="0.3"/>
<line stroke="var(--fig-fell,#2a78d6)" x1="528.9" y1="147.5" x2="680.1" y2="156.5" stroke-width="1.4" stroke-opacity="0.3"/>
<line stroke="var(--fig-fell,#2a78d6)" x1="528.9" y1="174.4" x2="680.1" y2="214.1" stroke-width="1.4" stroke-opacity="0.3"/>
<line stroke="var(--fig-fell,#2a78d6)" x1="528.9" y1="224.0" x2="680.1" y2="270.8" stroke-width="1.4" stroke-opacity="0.3"/>
<line stroke="var(--fig-fell,#2a78d6)" x1="528.9" y1="196.9" x2="680.1" y2="249.4" stroke-width="1.4" stroke-opacity="0.3"/>
<line stroke="var(--fig-fell,#2a78d6)" x1="528.9" y1="121.4" x2="680.1" y2="162.2" stroke-width="1.4" stroke-opacity="0.3"/>
<line stroke="var(--fig-fell,#2a78d6)" x1="528.9" y1="215.3" x2="680.1" y2="338.0" stroke-width="1.4" stroke-opacity="0.3"/>
<line stroke="var(--fig-fell,#2a78d6)" x1="528.9" y1="248.9" x2="680.1" y2="338.0" stroke-width="1.4" stroke-opacity="0.3"/>
<line stroke="var(--fig-fell,#2a78d6)" x1="528.9" y1="95.9" x2="680.1" y2="144.2" stroke-width="1.4" stroke-opacity="0.3"/>
<line stroke="var(--fig-fell,#2a78d6)" x1="528.9" y1="51.2" x2="680.1" y2="82.3" stroke-width="1.4" stroke-opacity="0.3"/>
<line stroke="var(--fig-fell,#2a78d6)" x1="528.9" y1="159.5" x2="680.1" y2="237.2" stroke-width="1.4" stroke-opacity="0.3"/>
<line stroke="var(--fig-fell,#2a78d6)" x1="528.9" y1="181.9" x2="680.1" y2="220.2" stroke-width="1.4" stroke-opacity="0.3"/>
<line stroke="var(--fig-fell,#2a78d6)" x1="528.9" y1="100.1" x2="680.1" y2="144.6" stroke-width="1.4" stroke-opacity="0.3"/>
<line stroke="var(--fig-fell,#2a78d6)" x1="528.9" y1="204.9" x2="680.1" y2="293.1" stroke-width="1.4" stroke-opacity="0.3"/>
<line stroke="var(--fig-fell,#2a78d6)" x1="528.9" y1="84.2" x2="680.1" y2="132.0" stroke-width="1.4" stroke-opacity="0.3"/>
<line stroke="var(--fig-fell,#2a78d6)" x1="528.9" y1="96.0" x2="680.1" y2="118.6" stroke-width="1.4" stroke-opacity="0.3"/>
<line stroke="var(--fig-fell,#2a78d6)" x1="528.9" y1="165.4" x2="680.1" y2="195.9" stroke-width="1.4" stroke-opacity="0.3"/>
<line stroke="var(--fig-fell,#2a78d6)" x1="528.9" y1="97.7" x2="680.1" y2="136.4" stroke-width="1.4" stroke-opacity="0.3"/>
<line stroke="var(--fig-fell,#2a78d6)" x1="528.9" y1="130.9" x2="680.1" y2="169.7" stroke-width="1.4" stroke-opacity="0.3"/>
<line stroke="var(--fig-fell,#2a78d6)" x1="528.9" y1="177.8" x2="680.1" y2="221.2" stroke-width="1.4" stroke-opacity="0.3"/>
<line stroke="var(--fig-fell,#2a78d6)" x1="528.9" y1="170.4" x2="680.1" y2="211.1" stroke-width="1.4" stroke-opacity="0.3"/>
<line x1="528.9" y1="227.9" x2="680.1" y2="293.8" stroke="var(--fig-ink,#0b0b0b)" stroke-width="2.6"/>
<circle cx="528.9" cy="227.9" r="5.5" fill="var(--fig-surface,#fcfcfb)" stroke="var(--fig-ink,#0b0b0b)" stroke-width="2.6"/>
<circle cx="680.1" cy="293.8" r="5.5" fill="var(--fig-surface,#fcfcfb)" stroke="var(--fig-ink,#0b0b0b)" stroke-width="2.6"/>
<text class="ink" x="517.9" y="216.9" text-anchor="end" font-size="12" font-weight="600">0.83</text>
<text class="ink" x="691.1" y="282.8" font-size="12" font-weight="600">0.14</text>
<line class="axis" x1="447.0" y1="338.0" x2="762.0" y2="338.0"/>
<text class="mut" x="528.9" y="356.0" text-anchor="middle" font-size="11">original</text>
<text class="mut" x="680.1" y="356.0" text-anchor="middle" font-size="11">penumbra-subtracted</text>
<text class="ink" x="447.0" y="20" font-size="13" font-weight="700">B</text>
<text class="ink" x="464.0" y="20" font-size="12">slow · 84 recordings</text>
<text class="mut" x="604.5" y="378.0" text-anchor="middle" font-size="11">fell in 55, rose in 2, already 0 in 27</text>
<text class="mut" x="16" y="186.0" font-size="11" transform="rotate(-90 16 186.0)" text-anchor="middle">coactivity excess (ROI·events per minute), K = 3 — log scale</text>
<line x1="170" y1="16" x2="188" y2="16" stroke="var(--fig-fell,#2a78d6)" stroke-width="2.4"/>
<text class="mut" x="194" y="20" font-size="11">fell</text>
<line x1="232" y1="16" x2="250" y2="16" stroke="var(--fig-rose,#eb6834)" stroke-width="2.4"/>
<text class="mut" x="256" y="20" font-size="11">rose</text>
<line x1="298" y1="16" x2="316" y2="16" stroke="var(--fig-mut,#52514e)" stroke-width="2.4"/>
<text class="mut" x="322" y="20" font-size="11">no change</text>
<line x1="392" y1="16" x2="410" y2="16" stroke="var(--fig-ink,#0b0b0b)" stroke-width="2.6"/>
<text class="mut" x="416" y="20" font-size="11">median</text>
<text class="mut" x="74" y="380" font-size="10">bugarach assess · 200 circular-shift surrogates · 1.0 s bin · baseline region as sent</text>
<text class="mut" x="74" y="392" font-size="10">(neither folder ships an analysis window). Below the dashed line is exactly zero, not a small value.</text>
</svg>